<svg xmlns="http://www.w3.org/2000/svg" width="1400" height="555" viewBox="0 0 1400 555" role="img"><style>text{font-family:Arial,Helvetica,sans-serif}.title{font-size:28px;font-weight:700;fill:#102A43}.sub{font-size:16px;fill:#627D98}.label{font-size:16px;fill:#243B53}.small{font-size:13px;fill:#627D98}.bold{font-weight:700}</style><rect width="100%" height="100%" fill="#FFFFFF"/><text x="65" y="52" class="title">AFHQ Cats: raw 20k comparison</text><text x="65" y="80" class="sub">Fixed quick-200 protocol · seeds 1000–1199 · Heun-50 · CFG 1.0 · lower/higher direction shown per metric</text><rect x="65" y="125" width="290" height="305" rx="12" fill="#F8FAFC" stroke="#D9E2EC"/><text x="85" y="159" class="label bold">FID ↓</text><text x="85" y="182" class="small">lower is better</text><text x="85" y="236" class="small">Baseline</text><rect x="85" y="245" width="58.7" height="18" rx="5" fill="#247BA0"/><text x="250" y="260" class="label bold">48.051</text><text x="85" y="301" class="small">Always-on REPA</text><rect x="85" y="310" width="127.1" height="18" rx="5" fill="#F4A261"/><text x="250" y="325" class="label bold">52.384</text><text x="85" y="366" class="small">Early-stop REPA</text><rect x="85" y="375" width="22.9" height="18" rx="5" fill="#2F855A"/><text x="250" y="390" class="label bold">45.787</text><text x="85" y="410" class="small">Best: Early-stop REPA</text><rect x="395" y="125" width="290" height="305" rx="12" fill="#F8FAFC" stroke="#D9E2EC"/><text x="415" y="159" class="label bold">KID ↓</text><text x="415" y="182" class="small">lower is better</text><text x="415" y="236" class="small">Baseline</text><rect x="415" y="245" width="67.6" height="18" rx="5" fill="#247BA0"/><text x="580" y="260" class="label bold">0.02052</text><text x="415" y="301" class="small">Always-on REPA</text><rect x="415" y="310" width="127.1" height="18" rx="5" fill="#F4A261"/><text x="580" y="325" class="label bold">0.025308</text><text x="415" y="366" class="small">Early-stop REPA</text><rect x="415" y="375" width="22.9" height="18" rx="5" fill="#2F855A"/><text x="580" y="390" class="label bold">0.016924</text><text x="415" y="410" class="small">Best: Early-stop REPA</text><rect x="725" y="125" width="290" height="305" rx="12" fill="#F8FAFC" stroke="#D9E2EC"/><text x="745" y="159" class="label bold">Precision ↑</text><text x="745" y="182" class="small">higher is better</text><text x="745" y="236" class="small">Baseline</text><rect x="745" y="245" width="127.1" height="18" rx="5" fill="#247BA0"/><text x="910" y="260" class="label bold">0.34</text><text x="745" y="301" class="small">Always-on REPA</text><rect x="745" y="310" width="75.0" height="18" rx="5" fill="#F4A261"/><text x="910" y="325" class="label bold">0.31</text><text x="745" y="366" class="small">Early-stop REPA</text><rect x="745" y="375" width="22.9" height="18" rx="5" fill="#2F855A"/><text x="910" y="390" class="label bold">0.28</text><text x="745" y="410" class="small">Best: Baseline</text><rect x="1055" y="125" width="290" height="305" rx="12" fill="#F8FAFC" stroke="#D9E2EC"/><text x="1075" y="159" class="label bold">Recall ↑</text><text x="1075" y="182" class="small">higher is better</text><text x="1075" y="236" class="small">Baseline</text><rect x="1075" y="245" width="127.1" height="18" rx="5" fill="#247BA0"/><text x="1240" y="260" class="label bold">0.754</text><text x="1075" y="301" class="small">Always-on REPA</text><rect x="1075" y="310" width="22.9" height="18" rx="5" fill="#F4A261"/><text x="1240" y="325" class="label bold">0.722</text><text x="1075" y="366" class="small">Early-stop REPA</text><rect x="1075" y="375" width="55.5" height="18" rx="5" fill="#2F855A"/><text x="1240" y="390" class="label bold">0.732</text><text x="1075" y="410" class="small">Best: Baseline</text><rect x="65" y="463" width="1270" height="55" rx="10" fill="#EEF7F3"/><text x="87" y="496" class="label">Decision: early-stop REPA was frozen for its FID/KID lead; baseline retains the precision/recall lead. Full-1000 was not run.</text></svg>